# Blender 3.6.5
# www.blender.org
mtllib fish3.mtl
o 平面
v 0.064695 -0.363925 1.262382
v 0.064695 0.192728 1.262382
v 0.031970 -0.295095 -0.956594
v 0.031969 0.123897 -0.956594
v 0.064694 -0.619829 0.218501
v 0.064695 -0.085599 1.262382
v 0.064694 0.448631 0.218501
v 0.031969 -0.085599 -0.956594
v 0.167816 -0.085599 0.218501
v 0.064694 -0.619829 0.806048
v 0.064694 0.448632 0.806048
v 0.124544 -0.085599 0.718310
v 0.064694 0.321530 -0.369046
v 0.064694 -0.492728 -0.369046
v 0.113777 -0.085599 -0.369046
v 0.031969 -0.541128 -1.544900
v 0.031969 0.369928 -1.544900
v 0.031969 -0.085600 -1.408029
v 0.037220 -0.182348 1.467784
v 0.037220 0.011151 1.467784
v 0.037220 -0.085599 1.467784
v -0.074005 -0.363925 1.262382
v -0.074005 0.192728 1.262382
v -0.041281 -0.295095 -0.956594
v -0.041281 0.123897 -0.956594
v -0.074005 -0.619829 0.218501
v -0.074005 -0.085599 1.262382
v -0.074005 0.448631 0.218501
v -0.041281 -0.085599 -0.956594
v -0.177127 -0.085599 0.218501
v -0.074005 -0.619829 0.806048
v -0.074005 0.448632 0.806048
v -0.133856 -0.085599 0.718310
v -0.074005 0.321530 -0.369046
v -0.074005 -0.492728 -0.369046
v -0.123088 -0.085599 -0.369046
v -0.041281 -0.541128 -1.544900
v -0.041281 0.369928 -1.544900
v -0.041281 -0.085600 -1.408029
v -0.046529 -0.182348 1.467784
v -0.046530 0.011151 1.467784
v -0.046530 -0.085599 1.467784
v -0.004656 -0.548258 -1.568475
v -0.004656 -0.085600 -1.429467
v -0.004655 -0.368281 1.282744
v -0.004655 -0.628191 0.819266
v -0.004656 0.377059 -1.568475
v -0.004655 0.197084 1.282744
v -0.004655 0.012665 1.491363
v -0.004655 0.127175 -0.970960
v -0.004655 0.327903 -0.374219
v -0.004655 0.456993 0.222526
v -0.004655 -0.499101 -0.374219
v -0.004655 -0.298374 -0.970960
v -0.004655 -0.628191 0.222526
v -0.004655 -0.085599 1.491363
v -0.004655 0.456994 0.819266
v -0.004655 -0.183863 1.491363
v -0.004655 0.547400 -0.128175
v -0.004655 0.664377 0.222522
v -0.004655 0.775952 0.573222
vn 0.9908 0.0789 -0.1098
vn 0.9908 -0.0789 -0.1098
vn 0.9883 -0.1475 0.0393
vn 0.9883 0.1475 0.0393
vn 0.9950 0.0651 0.0762
vn 0.9950 -0.0651 0.0762
vn 0.9852 -0.1593 -0.0625
vn 0.9852 0.1593 -0.0625
vn 1.0000 -0.0000 -0.0000
vn 0.9912 -0.0000 0.1326
vn -0.9908 0.0789 -0.1098
vn -0.9908 -0.0789 -0.1098
vn -0.9883 -0.1475 0.0393
vn -0.9883 0.1475 0.0393
vn -0.9950 0.0651 0.0762
vn -0.9950 -0.0651 0.0762
vn -0.9852 -0.1593 -0.0625
vn -0.9852 0.1593 -0.0625
vn -1.0000 -0.0000 -0.0000
vn -0.9912 -0.0000 0.1326
vn -0.4889 0.2510 -0.8354
vn -0.1946 -0.8555 0.4798
vn -0.4889 -0.2510 -0.8354
vn -0.2918 0.7069 0.6443
vn -0.1441 0.9367 -0.3191
vn -0.1050 0.9720 -0.2103
vn 0.0686 0.9204 0.3849
vn -0.1441 -0.9367 -0.3191
vn 0.0686 -0.9204 0.3849
vn -0.1050 -0.9720 -0.2103
vn -0.1197 -0.9928 -0.0000
vn -0.4906 -0.0000 0.8714
vn -0.1946 0.8555 0.4798
vn -0.1197 0.9928 -0.0000
vn -0.2918 -0.7069 0.6443
vn 0.2919 -0.7069 0.6443
vn 0.1197 0.9928 -0.0000
vn 0.4906 -0.0000 0.8714
vn 0.1946 0.8555 0.4798
vn 0.1197 -0.9928 -0.0000
vn 0.1050 -0.9720 -0.2103
vn -0.0686 -0.9204 0.3849
vn 0.1441 -0.9367 -0.3191
vn -0.0686 0.9204 0.3849
vn 0.1050 0.9720 -0.2103
vn 0.1441 0.9367 -0.3191
vn 0.2918 0.7069 0.6443
vn 0.4889 -0.2510 -0.8354
vn 0.1946 -0.8555 0.4798
vn 0.4889 0.2510 -0.8354
vt 0.500000 0.750000
vt 0.500000 1.000000
vt 1.000000 1.000000
vt 1.000000 0.750000
vt 0.000000 0.750000
vt 0.000000 1.000000
vt 0.000000 0.250000
vt 0.000000 0.500000
vt 0.500000 0.500000
vt 0.500000 0.250000
vt 1.000000 0.500000
vt 1.000000 0.250000
vt 0.500000 0.000000
vt 1.000000 0.000000
vt 0.000000 0.000000
vt 1.000000 0.750000
vt 1.000000 1.000000
vt 0.000000 1.000000
vt 0.000000 0.750000
s 0
usemtl Material.116
f 15/1/1 8/2/1 4/3/1 13/4/1
f 14/5/2 3/6/2 8/2/2 15/1/2
f 10/7/3 5/8/3 9/9/3 12/10/3
f 12/10/4 9/9/4 7/11/4 11/12/4
f 6/13/5 12/10/5 11/12/5 2/14/5
f 1/15/6 10/7/6 12/10/6 6/13/6
f 5/8/7 14/5/7 15/1/7 9/9/7
f 9/9/8 15/1/8 13/4/8 7/11/8
f 8/2/9 18/2/9 17/3/9 4/3/9
f 3/6/9 16/6/9 18/2/9 8/2/9
f 6/13/10 21/13/10 19/15/10 1/15/10
f 2/14/10 20/14/10 21/13/10 6/13/10
f 36/1/11 34/4/11 25/3/11 29/2/11
f 35/5/12 36/1/12 29/2/12 24/6/12
f 31/7/13 33/10/13 30/9/13 26/8/13
f 33/10/14 32/12/14 28/11/14 30/9/14
f 27/13/15 23/14/15 32/12/15 33/10/15
f 22/15/16 27/13/16 33/10/16 31/7/16
f 26/8/17 30/9/17 36/1/17 35/5/17
f 30/9/18 28/11/18 34/4/18 36/1/18
f 29/2/19 25/3/19 38/3/19 39/2/19
f 24/6/19 29/2/19 39/2/19 37/6/19
f 27/13/20 22/15/20 40/15/20 42/13/20
f 23/14/20 27/13/20 42/13/20 41/14/20
f 44/2/21 43/6/21 37/6/21 39/2/21
f 46/7/22 45/15/22 22/15/22 31/7/22
f 47/3/23 44/2/23 39/2/23 38/3/23
f 49/14/24 48/14/24 23/14/24 41/14/24
f 51/16/25 50/17/25 25/3/25 34/4/25
f 52/11/26 51/16/26 34/4/26 28/11/26
f 50/17/27 47/3/27 38/3/27 25/3/27
f 54/18/28 53/19/28 35/5/28 24/6/28
f 43/6/29 54/18/29 24/6/29 37/6/29
f 53/19/30 55/8/30 26/8/30 35/5/30
f 55/8/31 46/7/31 31/7/31 26/8/31
f 56/13/32 49/14/32 41/14/32 42/13/32
f 48/14/33 57/12/33 32/12/33 23/14/33
f 58/15/32 56/13/32 42/13/32 40/15/32
f 57/12/34 52/11/34 28/11/34 32/12/34
f 45/15/35 58/15/35 40/15/35 22/15/35
f 1/15/36 19/15/36 58/15/36 45/15/36
f 11/12/37 7/11/37 52/11/37 57/12/37
f 19/15/38 21/13/38 56/13/38 58/15/38
f 2/14/39 11/12/39 57/12/39 48/14/39
f 21/13/38 20/14/38 49/14/38 56/13/38
f 5/8/40 10/7/40 46/7/40 55/8/40
f 14/5/41 5/8/41 55/8/41 53/19/41
f 16/6/42 3/6/42 54/18/42 43/6/42
f 3/6/43 14/5/43 53/19/43 54/18/43
f 4/3/44 17/3/44 47/3/44 50/17/44
f 7/11/45 13/4/45 51/16/45 52/11/45
f 13/4/46 4/3/46 50/17/46 51/16/46
f 20/14/47 2/14/47 48/14/47 49/14/47
f 17/3/48 18/2/48 44/2/48 47/3/48
f 10/7/49 1/15/49 45/15/49 46/7/49
f 18/2/50 16/6/50 43/6/50 44/2/50
f 52/11/9 51/16/9 59/16/9 60/11/9
f 57/12/9 52/11/9 60/11/9 61/12/9
